{
    "asset": {
        "version": "2.0",
        "generator": "Open Asset Import Library (assimp v5.4.0)"
    },
    "extensionsUsed": [
        "KHR_materials_volume",
        "FB_ngon_encoding"
    ],
    "accessors": [
        {
            "bufferView": 0,
            "byteOffset": 0,
            "componentType": 5126,
            "count": 10444,
            "type": "VEC3",
            "max": [
                0.10626363754272461,
                0.2579983174800873,
                0.04592311382293701
            ],
            "min": [
                -0.10709059238433838,
                -0.00039474666118621826,
                -0.05242776870727539
            ]
        },
        {
            "bufferView": 1,
            "byteOffset": 0,
            "componentType": 5126,
            "count": 10444,
            "type": "VEC3",
            "max": [
                1.0,
                0.9998623132705688,
                0.999931275844574
            ],
            "min": [
                -1.0,
                -1.0,
                -0.999931275844574
            ]
        },
        {
            "bufferView": 2,
            "byteOffset": 0,
            "componentType": 5126,
            "count": 10444,
            "type": "VEC2",
            "max": [
                0.997108519077301,
                0.998046875
            ],
            "min": [
                0.001953125,
                0.001953125
            ]
        },
        {
            "bufferView": 3,
            "byteOffset": 0,
            "componentType": 5125,
            "count": 56274,
            "type": "SCALAR",
            "max": [
                10443
            ],
            "min": [
                0
            ]
        },
        {
            "bufferView": 4,
            "byteOffset": 0,
            "componentType": 5126,
            "count": 11586,
            "type": "VEC3",
            "max": [
                0.07796907424926758,
                0.19272339344024658,
                0.04271817207336426
            ],
            "min": [
                -0.06845498085021973,
                0.09734346717596054,
                -0.042997121810913086
            ]
        },
        {
            "bufferView": 5,
            "byteOffset": 0,
            "componentType": 5126,
            "count": 11586,
            "type": "VEC3",
            "max": [
                1.0,
                0.9999510049819946,
                0.9996070265769958
            ],
            "min": [
                -1.0,
                -0.9998955726623535,
                -0.9993714094161987
            ]
        },
        {
            "bufferView": 6,
            "byteOffset": 0,
            "componentType": 5126,
            "count": 11586,
            "type": "VEC2",
            "max": [
                0.990898609161377,
                0.998046875
            ],
            "min": [
                0.001953125,
                0.01977020502090454
            ]
        },
        {
            "bufferView": 7,
            "byteOffset": 0,
            "componentType": 5125,
            "count": 61554,
            "type": "SCALAR",
            "max": [
                11585
            ],
            "min": [
                0
            ]
        }
    ],
    "buffers": [
        {
            "byteLength": 1176272,
            "uri": "bag_0.bin"
        }
    ],
    "bufferViews": [
        {
            "buffer": 0,
            "byteOffset": 0,
            "byteLength": 125328,
            "target": 34962
        },
        {
            "buffer": 0,
            "byteOffset": 125328,
            "byteLength": 125328,
            "target": 34962
        },
        {
            "buffer": 0,
            "byteOffset": 250656,
            "byteLength": 83552,
            "target": 34962
        },
        {
            "buffer": 0,
            "byteOffset": 334208,
            "byteLength": 225096,
            "target": 34963
        },
        {
            "buffer": 0,
            "byteOffset": 559304,
            "byteLength": 139032,
            "target": 34962
        },
        {
            "buffer": 0,
            "byteOffset": 698336,
            "byteLength": 139032,
            "target": 34962
        },
        {
            "buffer": 0,
            "byteOffset": 837368,
            "byteLength": 92688,
            "target": 34962
        },
        {
            "buffer": 0,
            "byteOffset": 930056,
            "byteLength": 246216,
            "target": 34963
        }
    ],
    "images": [
        {
            "uri": "textures/image_0.png"
        },
        {
            "uri": "textures/image_1.png"
        }
    ],
    "materials": [
        {
            "name": "背包",
            "pbrMetallicRoughness": {
                "baseColorTexture": {
                    "index": 0
                },
                "metallicFactor": 0.0,
                "roughnessFactor": 0.5
            },
            "normalTexture": {
                "index": 1,
                "texCoord": 1
            },
            "doubleSided": true
        },
        {
            "name": "金属",
            "pbrMetallicRoughness": {
                "baseColorFactor": [
                    0.8003076910972595,
                    0.5619780421257019,
                    0.3143535554409027,
                    1.0
                ],
                "roughnessFactor": 0.0
            },
            "doubleSided": true
        }
    ],
    "meshes": [
        {
            "name": "meshes[0]",
            "primitives": [
                {
                    "mode": 4,
                    "material": 0,
                    "indices": 3,
                    "attributes": {
                        "POSITION": 0,
                        "NORMAL": 1,
                        "TEXCOORD_0": 2
                    }
                }
            ]
        },
        {
            "name": "meshes[1]",
            "primitives": [
                {
                    "mode": 4,
                    "material": 1,
                    "indices": 7,
                    "attributes": {
                        "POSITION": 4,
                        "NORMAL": 5,
                        "TEXCOORD_0": 6
                    }
                }
            ]
        }
    ],
    "nodes": [
        {
            "name": "bag",
            "children": [
                1
            ]
        },
        {
            "name": "Node1",
            "children": [
                2,
                3
            ],
            "extras": {
                "name": "Node1"
            }
        },
        {
            "name": "Mesh0",
            "mesh": 0
        },
        {
            "name": "Mesh0_1",
            "mesh": 1
        }
    ],
    "samplers": [
        {
            "magFilter": 9729,
            "minFilter": 9987
        },
        {
            "magFilter": 9729,
            "minFilter": 9987
        }
    ],
    "scenes": [
        {
            "nodes": [
                0
            ]
        }
    ],
    "textures": [
        {
            "source": 0,
            "sampler": 0
        },
        {
            "source": 1,
            "sampler": 1
        }
    ],
    "scene": 0
}