{"scene":0,"asset":{"generator":"ImageToStl.com","version":"2.0"},"scenes":[{"name":"Scene","nodes":[0]}],"nodes":[{"name":"Node0","children":[1]},{"name":"Node1","mesh":0}],"materials":[{"name":"SMALL_LADY_DIOR_BAG_mat","pbrMetallicRoughness":{"baseColorFactor":[0.0,0.0,0.0,1.0],"metallicFactor":1.0,"roughnessFactor":0.8},"emissiveFactor":[0.0,0.0,0.0],"doubleSided":true}],"meshes":[{"name":"Mesh0","primitives":[{"indices":3,"material":0,"attributes":{"POSITION":0,"NORMAL":1,"TEXCOORD_0":2}}]}],"accessors":[{"bufferView":0,"componentType":5126,"count":22030,"type":"VEC3","min":[-0.10709059,-0.045923114,-0.00039474666],"max":[0.10626364,0.05242777,0.25799832]},{"bufferView":1,"componentType":5126,"count":22030,"type":"VEC3"},{"bufferView":2,"componentType":5126,"count":22030,"type":"VEC2"},{"bufferView":3,"componentType":5123,"count":353484,"type":"SCALAR"}],"bufferViews":[{"target":34962,"buffer":0,"byteLength":264360,"byteOffset":0},{"target":34962,"buffer":0,"byteLength":264360,"byteOffset":264360},{"target":34962,"buffer":0,"byteLength":176240,"byteOffset":528720},{"target":34963,"buffer":0,"byteLength":706968,"byteOffset":704960}],"buffers":[{"byteLength":1411928,"uri":"data:application/octet-stream;base64,"}]}